<?xml version="1.0" encoding="UTF-8"?>
<svg id="Layer_2" xmlns="http://www.w3.org/2000/svg" viewBox="0 0 234.4 35">
  <defs>
    <style>
      .cls-1 {
        fill: #eb1000;
      }
    </style>
  </defs>
  <g id="Layer_1-2">
    <g>
      <path class="cls-1" d="M6.26,10.22h4.39l6.2,14.94h-4.64l-3.92-9.92-2.59,6.51h3.08l1.23,3.41H0l6.26-14.94ZM22.03,13.32c.45,0,.94.04,1.43.16v-3.7h3.88v14.72c-.89.4-2.81.89-4.73.89-3.48,0-6.47-1.98-6.47-5.93s2.88-6.13,5.89-6.13h0ZM22.52,22.19c.36,0,.65-.07.94-.16v-5.42c-.29-.11-.58-.16-.96-.16-1.27,0-2.45.94-2.45,2.92s1.2,2.81,2.47,2.81h0ZM34.25,13.32c3.23,0,5.98,2.19,5.98,6.02s-2.74,6.02-5.98,6.02-6-2.19-6-6.02,2.72-6.02,6-6.02h0ZM34.25,22.13c1.11,0,2.14-.89,2.14-2.79s-1.03-2.79-2.14-2.79-2.12.89-2.12,2.79.96,2.79,2.12,2.79ZM41.16,9.78h3.9v3.7c.47-.09.96-.16,1.45-.16,3.03,0,5.84,1.98,5.84,5.86,0,4.1-2.99,6.18-6.53,6.18-1.52,0-3.46-.31-4.66-.87v-14.72h0ZM45.91,22.17c1.34,0,2.56-.96,2.56-2.94,0-1.85-1.2-2.72-2.5-2.72-.36,0-.65.04-.91.16v5.35c.22.09.51.16.85.16h0ZM58.97,13.32c2.92,0,5.6,1.87,5.6,5.64,0,.51-.02,1-.09,1.49h-7.27c.4,1.32,1.56,1.94,3.01,1.94,1.18,0,2.27-.29,3.5-.82v2.97c-1.14.58-2.5.82-3.9.82-3.7,0-6.58-2.23-6.58-6.02s2.61-6.02,5.73-6.02h0ZM60.93,18.02c-.2-1.27-1.05-1.78-1.92-1.78s-1.58.54-1.87,1.78h3.79,0Z"/>
      <path d="M69.83,10.22h11.08v3.55h-6.93v2.14h6.02v3.5h-6.02v2.21h7.07v3.55h-11.21v-14.94ZM87.71,16.78l1.76-3.25h4.01l-3.48,5.62,3.75,6.02h-4.44l-1.81-3.39-1.83,3.39h-4.12l3.57-5.75-3.61-5.89h4.44l1.76,3.25h0ZM99.08,13.32c3.32,0,6.31,1.65,6.31,5.91s-3.12,6.13-6.42,6.13c-.29,0-.6-.02-.87-.04v3.32h-3.9v-14.43c1.16-.45,3.17-.89,4.88-.89ZM99.11,22.22c1.29,0,2.39-.8,2.39-2.92s-1.16-2.81-2.36-2.81c-.36,0-.71.02-1.03.11v5.48c.24.09.69.13,1,.13ZM117.21,19.01c0,.54-.04,1.11-.11,1.56h-7.29c.45,1.11,1.52,1.65,3.19,1.65,1.2,0,2.25-.22,3.3-.71l.04,3.1c-1.14.58-2.36.78-3.95.78-3.9,0-6.51-2.16-6.51-6.09,0-3.59,2.5-5.98,5.8-5.98s5.53,2.19,5.53,5.69h0ZM113.58,18.03c-.09-1.05-.74-1.78-1.87-1.78s-1.78.58-2.03,1.78h3.9ZM122.99,13.32c.91,0,1.65.11,1.98.22v3.03c-.27-.07-.78-.11-1.2-.11-.82,0-1.29.07-1.72.22v8.47h-3.9v-10.86c1.41-.62,2.81-.98,4.84-.98h0ZM129.54,11.2c0,1.07-.76,1.81-2.03,1.81s-2.05-.71-2.05-1.81.82-1.76,2.05-1.76,2.03.71,2.03,1.76ZM125.57,13.52h3.9v11.64h-3.9v-11.64ZM141.56,19.01c0,.54-.04,1.11-.11,1.56h-7.29c.45,1.11,1.52,1.65,3.19,1.65,1.2,0,2.25-.22,3.3-.71l.04,3.1c-1.14.58-2.36.78-3.95.78-3.9,0-6.51-2.16-6.51-6.09,0-3.59,2.5-5.98,5.8-5.98s5.53,2.19,5.53,5.69h0ZM137.92,18.03c-.09-1.05-.74-1.78-1.87-1.78s-1.78.58-2.03,1.78h3.9ZM153.29,25.16h-3.9v-6.8c0-1.25-.49-1.9-1.72-1.9-.54,0-.91.07-1.32.24v8.45h-3.9v-10.72c1.49-.65,3.46-1.14,5.6-1.14,3.41,0,5.24,1.69,5.24,4.84v7.02h0ZM160.91,16.46c-1.63,0-2.88.98-2.88,2.85s1.23,2.85,2.9,2.85c1.03,0,1.69-.16,2.36-.51v3.19c-.82.38-1.78.54-2.99.54-3.7,0-6.2-2.39-6.2-6.04s2.85-6.02,6.29-6.02c1.18,0,2.12.11,2.9.49v3.21c-.69-.38-1.47-.56-2.39-.56h0ZM175.18,19.01c0,.54-.04,1.11-.11,1.56h-7.29c.45,1.11,1.52,1.65,3.19,1.65,1.2,0,2.25-.22,3.3-.71l.04,3.1c-1.14.58-2.36.78-3.95.78-3.9,0-6.51-2.16-6.51-6.09,0-3.59,2.5-5.98,5.8-5.98s5.53,2.19,5.53,5.69h0ZM171.55,18.03c-.09-1.05-.74-1.78-1.87-1.78s-1.78.58-2.03,1.78h3.9ZM191.59,10.65l-.07,3.75c-.94-.6-2.01-.89-3.43-.89-2.63,0-4.1,1.76-4.1,4.06,0,2.81,1.69,4.3,4.21,4.3,1.23,0,2.32-.16,3.46-.78l.02,3.66c-.85.42-2.07.69-3.97.71-5.69.02-8.18-3.7-8.18-7.83,0-3.77,2.79-7.65,8.25-7.69,1.63-.02,3.01.22,3.81.71h0ZM196.79,9.75v11.21c0,.8.24,1.09.89,1.09.2,0,.29-.02.45-.07v3.14c-.51.22-1.23.24-1.78.24-2.36,0-3.43-1.16-3.43-3.59v-12.04h3.88ZM210.72,19.32c0,3.52-2.43,6.04-5.95,6.04-3.97,0-6.06-2.88-6.06-5.98,0-3.41,2.3-6.06,6.06-6.06,3.57,0,5.95,2.59,5.95,6ZM204.77,22.22c1.32,0,2.05-1.09,2.05-2.9s-.78-2.85-2.07-2.85-2.14.98-2.14,2.79.71,2.97,2.16,2.97h0ZM217.1,25.41c-3.81,0-5.48-1.52-5.48-4.73v-7.16h3.9v6.98c0,1.25.6,1.76,1.6,1.76.47,0,.87-.02,1.2-.16v-8.59h3.9v10.66c-1.49.76-3.1,1.23-5.13,1.23h0ZM229.61,25.36c-3.43,0-6.42-1.94-6.42-5.95s3.03-6.06,6.18-6.06c.42,0,.87.02,1.14.07v-3.66h3.9v14.65c-.94.47-2.79.96-4.79.96h0ZM229.47,22.19c.31,0,.74-.02,1.03-.09v-5.46c-.27-.09-.6-.16-1.05-.16-1.23,0-2.36.71-2.36,2.85,0,1.96,1.03,2.85,2.39,2.85h0Z"/>
    </g>
  </g>
</svg>